<svg width="118" height="31" viewBox="0 0 118 31" fill="#000" xmlns="http://www.w3.org/2000/svg">
<path d="M38.5372 18.7814V9.98988H44.4281V11.6026H40.2395V13.4393H42.905V15.052H40.2395V18.7814H38.5372ZM47.5639 9.98988H49.2551V18.7702H47.5639V9.98988ZM60.0849 18.7814H58.573L55.0788 13.6633C54.9668 13.4841 54.8436 13.2713 54.7204 13.0025C54.7428 13.2153 54.754 13.4393 54.754 13.6633V18.7814H53.0741V9.98988H54.6644L58.069 15.052C58.2146 15.2872 58.3266 15.5112 58.4386 15.7128C58.4162 15.5112 58.405 15.2872 58.405 15.052V9.98988H60.0849V18.7814ZM69.6828 18.7814L68.9996 16.9671H65.6062L64.9342 18.7814H63.1199L66.4798 9.98988H68.1373L71.4971 18.7814H69.6828ZM68.4509 15.4104L67.5885 13.1257C67.4541 12.7897 67.3645 12.5322 67.3085 12.3306C67.2525 12.521 67.1629 12.7897 67.0285 13.1257L66.1662 15.4104H68.4509ZM81.543 18.7814H80.0423L76.5592 13.6633C76.4361 13.4841 76.3241 13.2713 76.1897 13.0025C76.2121 13.2153 76.2233 13.4393 76.2233 13.6633V18.7814H74.5434V9.98988H76.1337L79.5383 15.052C79.6839 15.2872 79.7959 15.5112 79.8967 15.7128C79.8743 15.5112 79.8631 15.2872 79.8631 15.052V9.98988H81.543V18.7814ZM88.6882 18.9158C86.0116 18.9158 84.9924 16.6871 84.9924 14.3801C84.9924 13.3833 85.3844 9.85549 88.6882 9.85549C90.9729 9.85549 91.7233 11.5802 91.8241 11.8378L90.3009 12.5322C89.685 11.5914 89.1698 11.4906 88.677 11.4906C87.8371 11.4906 86.7395 12.1402 86.7395 14.3913C86.7395 14.66 86.8179 17.2919 88.677 17.2919C89.293 17.2919 89.8194 16.9111 90.2673 16.1608L91.8353 16.7431C91.1857 18.1879 90.1329 18.9158 88.6882 18.9158ZM95.1615 9.98988H96.8526V18.7702H95.1615V9.98988ZM106.518 18.7814L105.835 16.9671H102.452L101.769 18.7814H99.9548L103.315 9.98988H104.972L108.332 18.7814H106.518ZM105.297 15.4104L104.435 13.1257C104.3 12.7897 104.211 12.5322 104.155 12.3306C104.11 12.521 104.009 12.7897 103.875 13.1257L103.012 15.4104H105.297ZM111.378 18.7814V9.98988H113.069V17.1463H117.314V18.7814H111.378ZM31 4.42377C31 1.74711 29.2641 0 26.5762 0H4.42377C1.73591 0 0 1.73591 0 4.42377V26.5874C0 29.2641 1.73591 31.0112 4.42377 31.0112H26.5874C29.2641 31.0112 31.0112 29.2753 31.0112 26.5874V4.42377H31ZM26.3746 29.0401H4.62536C2.86705 29.0401 1.9599 28.1329 1.9599 26.3746V4.62536C1.9599 2.86705 2.86705 1.9599 4.62536 1.9599H26.3746C28.1329 1.9599 29.0401 2.86705 29.0401 4.62536V26.3746C29.0401 28.1329 28.1329 29.0401 26.3746 29.0401ZM25.2547 10.5611V18.7814H22.9924V10.897C22.9924 10.3483 22.634 10.0011 22.0965 10.0011H20.8309V18.7926H18.5686V9.98988H16.396V18.7814H14.1337V8.02998H22.7124C24.3027 8.02998 25.2547 9.00433 25.2547 10.5611ZM12.4314 8.02998V19.2182C12.4314 20.5397 11.849 22.97 8.00759 22.97H7.05564V20.9877H8.00759C9.51951 20.9541 10.1467 20.3269 10.1691 19.2294V18.7814H8.27637C6.77565 18.7814 5.7453 17.7735 5.7453 16.2504V10.5611C5.7453 9.04913 6.75325 8.02998 8.27637 8.02998H12.4314ZM10.1691 9.98988H8.90354C8.36597 9.98988 8.00759 10.3707 8.00759 10.8858V15.9032C8.00759 16.4408 8.38837 16.8215 8.92594 16.8215H10.1691V9.98988ZM14.1449 22.97H25.2547V20.9877H14.1449V22.97Z" fill="#000"/>
</svg>
